# Blender 4.1.0
# www.blender.org
mtllib tree.mtl
o Cube
v -0.298474 0.298474 0.000000
v -0.198736 0.198736 6.000000
v 0.298474 0.298474 0.000000
v 0.198736 0.198736 6.000000
v -0.298474 -0.298474 0.000000
v -0.198736 -0.198736 6.000000
v 0.298474 -0.298474 0.000000
v 0.198736 -0.198736 6.000000
v -0.774400 0.774400 6.000000
v 0.774400 0.774400 6.000000
v -0.774400 -0.774400 6.000000
v 0.774400 -0.774400 6.000000
v -0.396519 0.396519 10.821259
v 0.396519 0.396519 10.821259
v -0.396519 -0.396519 10.821259
v 0.396519 -0.396519 10.821259
vn -0.0000 0.9999 0.0166
vn 0.9999 -0.0000 0.0166
vn -0.0000 -0.9999 0.0166
vn -0.9999 -0.0000 0.0166
vn -0.9969 -0.0000 0.0781
vn 0.9969 -0.0000 0.0781
vn -0.0000 -0.9969 0.0781
vn -0.0000 0.9969 0.0781
vn -0.0000 -0.0000 1.0000
vt 0.625000 0.000000
vt 0.375000 0.250000
vt 0.375000 0.000000
vt 0.625000 0.250000
vt 0.375000 0.500000
vt 0.625000 0.500000
vt 0.375000 0.750000
vt 0.625000 0.750000
vt 0.375000 1.000000
vt 0.625000 1.000000
s 0
f 2/1/1 3/2/1 1/3/1
f 4/4/2 7/5/2 3/2/2
f 8/6/3 5/7/3 7/5/3
f 6/8/4 1/9/4 5/7/4
f 11/8/5 13/10/5 9/10/5
f 10/4/6 16/6/6 12/6/6
f 12/6/7 15/8/7 11/8/7
f 9/1/8 14/4/8 10/4/8
f 15/8/9 14/4/9 13/10/9
f 2/1/1 4/4/1 3/2/1
f 4/4/2 8/6/2 7/5/2
f 8/6/3 6/8/3 5/7/3
f 6/8/4 2/10/4 1/9/4
f 11/8/5 15/8/5 13/10/5
f 10/4/6 14/4/6 16/6/6
f 12/6/7 16/6/7 15/8/7
f 9/1/8 13/1/8 14/4/8
f 15/8/9 16/6/9 14/4/9
